<?xml version="1.0" standalone="no"?>
<!DOCTYPE svg PUBLIC "-//W3C//DTD SVG 20010904//EN"
 "http://www.w3.org/TR/2001/REC-SVG-20010904/DTD/svg10.dtd">
<svg version="1.0" xmlns="http://www.w3.org/2000/svg"
 width="1280.000000pt" height="1280.000000pt" viewBox="0 0 1280.000000 1280.000000"
 preserveAspectRatio="xMidYMid meet">
<metadata>
Created by potrace 1.15, written by Peter Selinger 2001-2017
</metadata>
<g transform="translate(0.000000,1280.000000) scale(0.100000,-0.100000)"
fill="#0d6efd" stroke="none">
<path d="M1741 12789 c-349 -37 -694 -176 -986 -397 -80 -61 -243 -220 -315
-307 -237 -289 -391 -663 -430 -1044 -14 -144 -14 -9138 0 -9282 36 -352 168
-696 375 -974 270 -362 657 -618 1104 -730 213 -53 -75 -50 4911 -50 3774 0
4661 2 4730 13 635 98 1176 486 1458 1047 93 185 142 332 184 550 l23 120 0
4665 c0 4445 -1 4669 -18 4760 -82 435 -260 781 -548 1069 -316 316 -737 515
-1188 561 -129 13 -9175 12 -9300 -1z"/>
</g>
</svg>
